<?xml version="1.0" encoding="UTF-8" standalone="no"?>
<svg
   version="1.1"
   x="0px"
   y="0px"
   viewBox="0 0 73.709999 79.998489"
   xml:space="preserve"
   id="svg18"
   sodipodi:docname="noun-noodle-bowl-5571439.svg"
   width="73.709999"
   height="79.998489"
   inkscape:version="1.3.2 (091e20e, 2023-11-25, custom)"
   xmlns:inkscape="http://www.inkscape.org/namespaces/inkscape"
   xmlns:sodipodi="http://sodipodi.sourceforge.net/DTD/sodipodi-0.dtd"
   xmlns="http://www.w3.org/2000/svg"
   xmlns:svg="http://www.w3.org/2000/svg"><defs
     id="defs18" /><sodipodi:namedview
     id="namedview18"
     pagecolor="#ffffff"
     bordercolor="#666666"
     borderopacity="1.0"
     inkscape:showpageshadow="2"
     inkscape:pageopacity="0.0"
     inkscape:pagecheckerboard="0"
     inkscape:deskcolor="#d1d1d1"
     inkscape:zoom="9.448"
     inkscape:cx="36.886113"
     inkscape:cy="52.550804"
     inkscape:window-width="2560"
     inkscape:window-height="1377"
     inkscape:window-x="-8"
     inkscape:window-y="-8"
     inkscape:window-maximized="1"
     inkscape:current-layer="svg18" /><path
     d="m 56.96,0.10849094 c -0.38,-0.16 -0.8,-0.14 -1.16,0.04 -0.38,0.18 -0.68,0.48 -0.82,0.87999996 L 45.95,25.868491 c 0,0 0,0.02 -0.02,0.02 l -4.22,11.65 c 1.02,0.16 2,0.5 2.9,1.02 L 57.9,2.0884909 c 0.06,-0.18 0.1,-0.38 0.1,-0.54 0,-0.63999996 -0.44,-1.21999996 -1.04,-1.43999996 z"
     id="path1"
     style="fill:#ffffff" /><path
     d="m 33.6,31.018491 c -0.26,-1.18 -1.28,-2.08 -2.54,-2.08 -1.26,0 -2.26,0.88 -2.54,2.06 0.9,0.42 1.76,0.92 2.56,1.5 0.8,-0.56 1.66,-1.06 2.52,-1.48 z"
     id="path2"
     style="fill:#ffffff" /><path
     d="m 31.05,27.428491 c 1.9,0 3.48,1.26 3.98,2.98 0.76,-0.28 1.56,-0.5 2.4,-0.66 -0.82,-2.82 -3.38,-4.82 -6.39,-4.82 -3.01,0 -5.54,1.98 -6.37,4.8 0.82,0.16 1.62,0.38 2.4,0.66 0.52,-1.72 2.1,-2.96 3.98,-2.96 z"
     id="path3"
     style="fill:#ffffff" /><path
     d="m 38.92,29.548491 c 0.88,-0.1 1.72,-0.1 2.54,-0.06 -1,-4.94 -5.3,-8.57 -10.41,-8.57 -5.11,0 -9.41,3.62 -10.41,8.55 0.32,-0.02 0.64,-0.04 0.96,-0.04 0.54,0 1.06,0.02 1.58,0.08 0.94,-3.56 4.12,-6.09 7.87,-6.09 3.77,0.01 6.95,2.55 7.87,6.13 z"
     id="path4"
     style="fill:#ffffff" /><path
     d="m 31.05,16.918491 c -7.61,0 -13.93,5.91 -14.61,13.37 0.86,-0.3 1.74,-0.5 2.64,-0.64 0.96,-5.87 5.99,-10.23 11.97,-10.23 5.95,0 10.95,4.3 11.95,10.11 l 1.42,-3.88 c -2.36,-5.3 -7.56,-8.73 -13.37,-8.73 z"
     id="path5"
     style="fill:#ffffff" /><path
     d="m 73.71,8.6584909 c 0,-0.44 -0.22,-0.88 -0.56,-1.18 -0.32,-0.26 -0.7,-0.38 -1.12,-0.36 -0.42,0.04 -0.78,0.24 -1.04,0.54 L 50.03,32.598491 c 0.82,0.6 1.58,1.28 2.3,2.04 L 73.35,9.6384909 c 0.22,-0.28 0.36,-0.62 0.36,-0.98 z"
     id="path6"
     style="fill:#ffffff" /><path
     d="m 55.12,44.868491 c -0.16,-3.14 -1.3,-6.19 -3.32,-8.63 -0.94,-1.14 -2.04,-2.1 -3.24,-2.88 -0.12,-0.08 -0.24,-0.14 -0.36,-0.22 l -0.9,2.42 c 3.12,2.1 5.1,5.57 5.34,9.31 z"
     id="path7"
     style="fill:#ffffff" /><path
     d="m 51.13,44.868491 c -0.22,-3.12 -1.82,-6.01 -4.36,-7.85 l -0.9,2.48 c 1.58,1.4 2.54,3.28 2.72,5.36 h 2.54 z"
     id="path8"
     style="fill:#ffffff" /><path
     d="m 34.08,35.298491 c 1.94,-1.2 4.12,-1.86 6.41,-1.86 0.38,0 0.72,0.04 1.08,0.08 l 0.88,-2.44 c -0.04,0 -0.08,-0.02 -0.12,-0.02 -1.24,-0.16 -2.52,-0.16 -3.86,0.02 -1.3,0.18 -2.54,0.52 -3.7,1.04 -0.86,0.36 -1.66,0.84 -2.46,1.36 0.63,0.56 1.23,1.16 1.77,1.82 z"
     id="path9"
     style="fill:#ffffff" /><path
     d="m 40.12,37.458491 0.9,-2.46 c -2.08,-0.12 -4.2,0.4 -6.03,1.5 0.46,0.68 0.86,1.42 1.22,2.16 1.19,-0.72 2.51,-1.14 3.91,-1.2 z"
     id="path10"
     style="fill:#ffffff" /><path
     d="m 44.59,44.868491 h 2.5 c -0.2,-1.8 -1.08,-3.42 -2.56,-4.56 -1.12,-0.86 -2.46,-1.32 -3.88,-1.36 -1.48,0 -2.74,0.4 -3.84,1.14 0.32,0.82 0.56,1.7 0.72,2.58 0.76,-0.76 1.8,-1.22 2.96,-1.22 2.06,0 3.76,1.48 4.1,3.42 z"
     id="path11"
     style="fill:#ffffff" /><path
     d="m 37.96,44.868491 h 5.06 c -0.34,-1.1 -1.32,-1.92 -2.54,-1.92 -1.2,0 -2.2,0.82 -2.52,1.92 z"
     id="path12"
     style="fill:#ffffff" /><path
     d="m 6.95,44.868491 h 2.5 c 0.4,-6.37 5.68,-11.43 12.15,-11.43 6.49,0 11.77,5.06 12.15,11.43 h 2.5 c -0.28,-5.73 -3.84,-10.61 -8.87,-12.75 -0.04,-0.02 -0.06,-0.02 -0.1,-0.04 -1.74,-0.74 -3.66,-1.14 -5.68,-1.14 -7.84,0 -14.25,6.18 -14.65,13.93 z"
     id="path13"
     style="fill:#ffffff" /><path
     d="m 32.24,44.868491 c -0.4,-5.54 -4.98,-9.93 -10.63,-9.93 -5.63,0 -10.21,4.38 -10.61,9.93 h 2.5 c 0.38,-4.16 3.86,-7.43 8.11,-7.43 4.26,0 7.73,3.26 8.13,7.43 z"
     id="path14"
     style="fill:#ffffff" /><path
     d="m 25.73,44.868491 h 2.5 c -0.38,-3.32 -3.18,-5.93 -6.63,-5.93 -3.42,0 -6.23,2.6 -6.61,5.93 h 2.5 c 0.36,-1.94 2.06,-3.42 4.1,-3.42 2.08,0 3.78,1.48 4.14,3.42 z"
     id="path15"
     style="fill:#ffffff" /><path
     d="m 19.08,44.868491 h 5.06 c -0.34,-1.1 -1.32,-1.92 -2.54,-1.92 -1.19,0 -2.18,0.82 -2.52,1.92 z"
     id="path16"
     style="fill:#ffffff" /><rect
     x="16.42"
     y="74.168488"
     width="29.27"
     height="5.8299999"
     id="rect16"
     style="fill:#ffffff" /><path
     d="m 46.27,72.668491 c 9.55,-5.34 15.55,-15.35 15.83,-26.3 H 0 c 0.28,10.95 6.29,20.96 15.83,26.3 z m -2.02,-6.04 c 5.4,-2.98 8.77,-8.67 8.77,-14.85 0,-0.42 0.34,-0.76 0.76,-0.76 0.4,0 0.74,0.34 0.74,0.76 0,6.73 -3.64,12.93 -9.55,16.17 -0.1,0.06 -0.22,0.08 -0.36,0.08 -0.26,0 -0.52,-0.14 -0.64,-0.38 -0.2,-0.36 -0.08,-0.82 0.28,-1.02 z"
     id="path17"
     style="fill:#ffffff" /></svg>
