<?xml version="1.0" encoding="UTF-8" standalone="no"?>
<svg
   version="1.1"
   viewBox="-5 -10 44.901764 44.996655"
   id="svg2"
   sodipodi:docname="icon-house.svg"
   width="44.901764"
   height="44.996655"
   inkscape:version="1.3.2 (091e20e, 2023-11-25, custom)"
   xmlns:inkscape="http://www.inkscape.org/namespaces/inkscape"
   xmlns:sodipodi="http://sodipodi.sourceforge.net/DTD/sodipodi-0.dtd"
   xmlns="http://www.w3.org/2000/svg"
   xmlns:svg="http://www.w3.org/2000/svg">
  <defs
     id="defs2" />
  <sodipodi:namedview
     id="namedview2"
     pagecolor="#ffffff"
     bordercolor="#666666"
     borderopacity="1.0"
     inkscape:showpageshadow="2"
     inkscape:pageopacity="0.0"
     inkscape:pagecheckerboard="0"
     inkscape:deskcolor="#d1d1d1"
     inkscape:zoom="8.7481481"
     inkscape:cx="22.404742"
     inkscape:cy="30.006351"
     inkscape:window-width="2560"
     inkscape:window-height="1377"
     inkscape:window-x="-8"
     inkscape:window-y="-8"
     inkscape:window-maximized="1"
     inkscape:current-layer="svg2" />
  <path
     d="m 39.550386,11.406915 -21.281,-21.07 c -0.46094,-0.44922 -1.1953,-0.44922 -1.6562,0 l -21.2809996,21.07 c -0.32812,0.33984 -0.42188,0.83984 -0.24219,1.2734 0.17969,0.43359 0.60156,0.71875 1.0703,0.72656 h 3.33980003 v 20.41 c 0,0.3125 0.12891,0.61719 0.35156,0.83594 0.22266,0.22266 0.52344,0.34766 0.83984,0.34375 H 10.382896 c 0.3125,0.0039 0.61719,-0.12109 0.83984,-0.34375 0.22266,-0.21875 0.34766,-0.52344 0.34766,-0.83594 v -12.801 c 0,-0.3125 0.125,-0.61328 0.34766,-0.83203 0.21875,-0.22266 0.51953,-0.34766 0.83203,-0.34766 h 9.3828 c 0.3125,0 0.61328,0.125 0.83203,0.34766 0.22266,0.21875 0.34766,0.51953 0.34766,0.83203 v 12.801 c 0,0.3125 0.125,0.61719 0.34766,0.83594 0.22266,0.22266 0.52734,0.34766 0.83984,0.34375 h 9.6914 c 0.31641,0.0039 0.61719,-0.12109 0.83984,-0.34375 0.22266,-0.21875 0.35156,-0.52344 0.35156,-0.83594 v -20.391 h 3.3398 c 0.47656,0 0.91016,-0.28906 1.0898,-0.73047 0.18359,-0.44531 0.07813,-0.95312 -0.26172,-1.2891 z"
     id="path1"
     style="fill:#ffffff" />
</svg>
