<?xml version="1.0" encoding="UTF-8" standalone="no"?>
<svg
   version="1.1"
   viewBox="-5 -10 87.5 87.5"
   id="svg2"
   sodipodi:docname="icon-clock.svg"
   width="87.5"
   height="87.5"
   inkscape:version="1.3.2 (091e20e, 2023-11-25, custom)"
   xmlns:inkscape="http://www.inkscape.org/namespaces/inkscape"
   xmlns:sodipodi="http://sodipodi.sourceforge.net/DTD/sodipodi-0.dtd"
   xmlns="http://www.w3.org/2000/svg"
   xmlns:svg="http://www.w3.org/2000/svg">
  <defs
     id="defs2" />
  <sodipodi:namedview
     id="namedview2"
     pagecolor="#ffffff"
     bordercolor="#666666"
     borderopacity="1.0"
     inkscape:showpageshadow="2"
     inkscape:pageopacity="0.0"
     inkscape:pagecheckerboard="0"
     inkscape:deskcolor="#d1d1d1"
     inkscape:zoom="8.7481481"
     inkscape:cx="43.780694"
     inkscape:cy="51.267993"
     inkscape:window-width="2560"
     inkscape:window-height="1377"
     inkscape:window-x="-8"
     inkscape:window-y="-8"
     inkscape:window-maximized="1"
     inkscape:current-layer="svg2" />
  <path
     d="M 38.75,-10 C 14.625,-10 -5,9.625 -5,33.75 -5,57.875 14.625,77.5 38.75,77.5 62.875,77.5 82.5,57.875 82.5,33.75 82.5,9.625 62.875,-10 38.75,-10 Z m 0,81.25 c -20.68,0 -37.5,-16.82 -37.5,-37.5 0,-20.68 16.82,-37.5 37.5,-37.5 20.68,0 37.5,16.82 37.5,37.5 0,20.68 -16.82,37.5 -37.5,37.5 z M 57.055,44.734 c -0.58594,0.97656 -1.6211,1.5156 -2.6797,1.5156 -0.54688,0 -1.1016,-0.14453 -1.6055,-0.44531 l -15.625,-9.375 c -0.94141,-0.56641 -1.5156,-1.582 -1.5156,-2.6797 v -18.75 c 0,-1.7266 1.3984,-3.125 3.125,-3.125 1.7266,0 3.125,1.3984 3.125,3.125 v 16.98 l 14.109,8.4648 c 1.4805,0.88672 1.9609,2.8047 1.0703,4.2891 z"
     id="path1"
     style="fill:#ffffff" />
</svg>
