<?xml version="1.0" encoding="UTF-8" standalone="no"?>
<!-- Created with Inkscape (http://www.inkscape.org/) -->

<svg
   width="48.108002"
   height="33.365025"
   viewBox="0 0 12.728575 8.8278294"
   version="1.1"
   id="svg1"
   xmlns="http://www.w3.org/2000/svg"
   xmlns:svg="http://www.w3.org/2000/svg">
  <defs
     id="defs1" />
  <g
     id="layer1">
    <path
       style="fill:#d6c278;fill-opacity:1;stroke:none"
       d="m 1.5229822,0.00506326 c -0.62466004,0.082 -1.00369404,0.5592 -1.09175404,1.17382004 -0.0377,0.2631 0.0277,0.55746 0.0559,0.81998 0.0526,0.49094 0.111694,0.98309 0.133274,1.47598 0.0529,1.20855 -0.120034,2.31358 -0.502284,3.46033 -0.18318,0.54955 -0.18914,1.06498 0.242,1.50813 0.229764,0.23616 0.66014404,0.47191 0.99890404,0.35245 0.24291,-0.0856 0.4319,-0.30397 0.60655,-0.48301 0.5814,-0.596 1.16183,-1.41831 2.083,-1.44106 0.82971,-0.0205 1.2906,0.7853 1.93516,1.16876 0.77893,0.46339 1.81553,0.4993 2.68955,0.36374 1.4307198,-0.22189 2.8242398,-1.02945 3.5784098,-2.28899 0.35671,-0.59575 0.58479,-1.33945 0.42496,-2.03357 -0.23291,-1.01151 -1.05183,-1.82394 -1.87141,-2.40379 C 9.3938822,0.67929326 7.4564822,0.04542326 5.7541422,0.63541326 c -0.45552,0.15788 -0.84784,0.39763004 -1.22998,0.68917004 -0.24303,0.18541 -0.53874,0.45875 -0.86918,0.44126 -0.26468,-0.014 -0.48254,-0.19615 -0.64631,-0.39016 -0.27287,-0.32326 -0.47227,-0.71083004 -0.76471,-1.01678004 -0.19167,-0.20053 -0.42429,-0.39279 -0.72094,-0.35384 z"
       id="path3" />
  </g>
</svg>
